<?xml version="1.0" encoding="utf-8" standalone="no"?>
<!DOCTYPE svg PUBLIC "-//W3C//DTD SVG 1.1//EN"
  "http://www.w3.org/Graphics/SVG/1.1/DTD/svg11.dtd">
<svg xmlns:xlink="http://www.w3.org/1999/xlink" width="1182.396047pt" height="481.877781pt" viewBox="0 0 1182.396047 481.877781" xmlns="http://www.w3.org/2000/svg" version="1.1">
 <metadata>
  <rdf:RDF xmlns:dc="http://purl.org/dc/elements/1.1/" xmlns:cc="http://creativecommons.org/ns#" xmlns:rdf="http://www.w3.org/1999/02/22-rdf-syntax-ns#">
   <cc:Work>
    <dc:type rdf:resource="http://purl.org/dc/dcmitype/StillImage"/>
    <dc:date>2024-07-31T16:25:29.160221</dc:date>
    <dc:format>image/svg+xml</dc:format>
    <dc:creator>
     <cc:Agent>
      <dc:title>Matplotlib v3.7.0, https://matplotlib.org/</dc:title>
     </cc:Agent>
    </dc:creator>
   </cc:Work>
  </rdf:RDF>
 </metadata>
 <defs>
  <style type="text/css">*{stroke-linejoin: round; stroke-linecap: butt}</style>
 </defs>
 <g id="figure_1">
  <g id="patch_1">
   <path d="M 0 481.877781 
L 1182.396047 481.877781 
L 1182.396047 0 
L 0 0 
z
" style="fill: #ffffff"/>
  </g>
  <g id="axes_1">
   <g id="patch_2">
    <path d="M 59.196047 336.014531 
L 566.468774 336.014531 
L 566.468774 58.814531 
L 59.196047 58.814531 
z
" style="fill: #ffffff"/>
   </g>
   <g id="matplotlib.axis_1">
    <g id="xtick_1">
     <g id="text_1">
      <!-- 2004 -->
      <g style="fill: #262626" transform="translate(95.171931 355.750203) scale(0.143 -0.143)">
       <defs>
        <path id="ArialMT-32" d="M 3222 541 
L 3222 0 
L 194 0 
Q 188 203 259 391 
Q 375 700 629 1000 
Q 884 1300 1366 1694 
Q 2113 2306 2375 2664 
Q 2638 3022 2638 3341 
Q 2638 3675 2398 3904 
Q 2159 4134 1775 4134 
Q 1369 4134 1125 3890 
Q 881 3647 878 3216 
L 300 3275 
Q 359 3922 746 4261 
Q 1134 4600 1788 4600 
Q 2447 4600 2831 4234 
Q 3216 3869 3216 3328 
Q 3216 3053 3103 2787 
Q 2991 2522 2730 2228 
Q 2469 1934 1863 1422 
Q 1356 997 1212 845 
Q 1069 694 975 541 
L 3222 541 
z
" transform="scale(0.015625)"/>
        <path id="ArialMT-30" d="M 266 2259 
Q 266 3072 433 3567 
Q 600 4063 929 4331 
Q 1259 4600 1759 4600 
Q 2128 4600 2406 4451 
Q 2684 4303 2865 4023 
Q 3047 3744 3150 3342 
Q 3253 2941 3253 2259 
Q 3253 1453 3087 958 
Q 2922 463 2592 192 
Q 2263 -78 1759 -78 
Q 1097 -78 719 397 
Q 266 969 266 2259 
z
M 844 2259 
Q 844 1131 1108 757 
Q 1372 384 1759 384 
Q 2147 384 2411 759 
Q 2675 1134 2675 2259 
Q 2675 3391 2411 3762 
Q 2147 4134 1753 4134 
Q 1366 4134 1134 3806 
Q 844 3388 844 2259 
z
" transform="scale(0.015625)"/>
        <path id="ArialMT-34" d="M 2069 0 
L 2069 1097 
L 81 1097 
L 81 1613 
L 2172 4581 
L 2631 4581 
L 2631 1613 
L 3250 1613 
L 3250 1097 
L 2631 1097 
L 2631 0 
L 2069 0 
z
M 2069 1613 
L 2069 3678 
L 634 1613 
L 2069 1613 
z
" transform="scale(0.015625)"/>
       </defs>
       <use xlink:href="#ArialMT-32"/>
       <use xlink:href="#ArialMT-30" x="55.615234"/>
       <use xlink:href="#ArialMT-30" x="111.230469"/>
       <use xlink:href="#ArialMT-34" x="166.845703"/>
      </g>
     </g>
    </g>
    <g id="xtick_2">
     <g id="text_2">
      <!-- 2006 -->
      <g style="fill: #262626" transform="translate(152.816559 355.750203) scale(0.143 -0.143)">
       <defs>
        <path id="ArialMT-36" d="M 3184 3459 
L 2625 3416 
Q 2550 3747 2413 3897 
Q 2184 4138 1850 4138 
Q 1581 4138 1378 3988 
Q 1113 3794 959 3422 
Q 806 3050 800 2363 
Q 1003 2672 1297 2822 
Q 1591 2972 1913 2972 
Q 2475 2972 2870 2558 
Q 3266 2144 3266 1488 
Q 3266 1056 3080 686 
Q 2894 316 2569 119 
Q 2244 -78 1831 -78 
Q 1128 -78 684 439 
Q 241 956 241 2144 
Q 241 3472 731 4075 
Q 1159 4600 1884 4600 
Q 2425 4600 2770 4297 
Q 3116 3994 3184 3459 
z
M 888 1484 
Q 888 1194 1011 928 
Q 1134 663 1356 523 
Q 1578 384 1822 384 
Q 2178 384 2434 671 
Q 2691 959 2691 1453 
Q 2691 1928 2437 2201 
Q 2184 2475 1800 2475 
Q 1419 2475 1153 2201 
Q 888 1928 888 1484 
z
" transform="scale(0.015625)"/>
       </defs>
       <use xlink:href="#ArialMT-32"/>
       <use xlink:href="#ArialMT-30" x="55.615234"/>
       <use xlink:href="#ArialMT-30" x="111.230469"/>
       <use xlink:href="#ArialMT-36" x="166.845703"/>
      </g>
     </g>
    </g>
    <g id="xtick_3">
     <g id="text_3">
      <!-- 2008 -->
      <g style="fill: #262626" transform="translate(210.461187 355.750203) scale(0.143 -0.143)">
       <defs>
        <path id="ArialMT-38" d="M 1131 2484 
Q 781 2613 612 2850 
Q 444 3088 444 3419 
Q 444 3919 803 4259 
Q 1163 4600 1759 4600 
Q 2359 4600 2725 4251 
Q 3091 3903 3091 3403 
Q 3091 3084 2923 2848 
Q 2756 2613 2416 2484 
Q 2838 2347 3058 2040 
Q 3278 1734 3278 1309 
Q 3278 722 2862 322 
Q 2447 -78 1769 -78 
Q 1091 -78 675 323 
Q 259 725 259 1325 
Q 259 1772 486 2073 
Q 713 2375 1131 2484 
z
M 1019 3438 
Q 1019 3113 1228 2906 
Q 1438 2700 1772 2700 
Q 2097 2700 2305 2904 
Q 2513 3109 2513 3406 
Q 2513 3716 2298 3927 
Q 2084 4138 1766 4138 
Q 1444 4138 1231 3931 
Q 1019 3725 1019 3438 
z
M 838 1322 
Q 838 1081 952 856 
Q 1066 631 1291 507 
Q 1516 384 1775 384 
Q 2178 384 2440 643 
Q 2703 903 2703 1303 
Q 2703 1709 2433 1975 
Q 2163 2241 1756 2241 
Q 1359 2241 1098 1978 
Q 838 1716 838 1322 
z
" transform="scale(0.015625)"/>
       </defs>
       <use xlink:href="#ArialMT-32"/>
       <use xlink:href="#ArialMT-30" x="55.615234"/>
       <use xlink:href="#ArialMT-30" x="111.230469"/>
       <use xlink:href="#ArialMT-38" x="166.845703"/>
      </g>
     </g>
    </g>
    <g id="xtick_4">
     <g id="text_4">
      <!-- 2010 -->
      <g style="fill: #262626" transform="translate(268.105815 355.750203) scale(0.143 -0.143)">
       <defs>
        <path id="ArialMT-31" d="M 2384 0 
L 1822 0 
L 1822 3584 
Q 1619 3391 1289 3197 
Q 959 3003 697 2906 
L 697 3450 
Q 1169 3672 1522 3987 
Q 1875 4303 2022 4600 
L 2384 4600 
L 2384 0 
z
" transform="scale(0.015625)"/>
       </defs>
       <use xlink:href="#ArialMT-32"/>
       <use xlink:href="#ArialMT-30" x="55.615234"/>
       <use xlink:href="#ArialMT-31" x="111.230469"/>
       <use xlink:href="#ArialMT-30" x="166.845703"/>
      </g>
     </g>
    </g>
    <g id="xtick_5">
     <g id="text_5">
      <!-- 2012 -->
      <g style="fill: #262626" transform="translate(325.750443 355.750203) scale(0.143 -0.143)">
       <use xlink:href="#ArialMT-32"/>
       <use xlink:href="#ArialMT-30" x="55.615234"/>
       <use xlink:href="#ArialMT-31" x="111.230469"/>
       <use xlink:href="#ArialMT-32" x="166.845703"/>
      </g>
     </g>
    </g>
    <g id="xtick_6">
     <g id="text_6">
      <!-- 2014 -->
      <g style="fill: #262626" transform="translate(383.395071 355.750203) scale(0.143 -0.143)">
       <use xlink:href="#ArialMT-32"/>
       <use xlink:href="#ArialMT-30" x="55.615234"/>
       <use xlink:href="#ArialMT-31" x="111.230469"/>
       <use xlink:href="#ArialMT-34" x="166.845703"/>
      </g>
     </g>
    </g>
    <g id="xtick_7">
     <g id="text_7">
      <!-- 2016 -->
      <g style="fill: #262626" transform="translate(441.0397 355.750203) scale(0.143 -0.143)">
       <use xlink:href="#ArialMT-32"/>
       <use xlink:href="#ArialMT-30" x="55.615234"/>
       <use xlink:href="#ArialMT-31" x="111.230469"/>
       <use xlink:href="#ArialMT-36" x="166.845703"/>
      </g>
     </g>
    </g>
    <g id="xtick_8">
     <g id="text_8">
      <!-- 2018 -->
      <g style="fill: #262626" transform="translate(498.684328 355.750203) scale(0.143 -0.143)">
       <use xlink:href="#ArialMT-32"/>
       <use xlink:href="#ArialMT-30" x="55.615234"/>
       <use xlink:href="#ArialMT-31" x="111.230469"/>
       <use xlink:href="#ArialMT-38" x="166.845703"/>
      </g>
     </g>
    </g>
    <g id="text_9">
     <!-- Year -->
     <g style="fill: #262626" transform="translate(297.069098 373.758516) scale(0.156 -0.156)">
      <defs>
       <path id="ArialMT-59" d="M 1784 0 
L 1784 1941 
L 19 4581 
L 756 4581 
L 1659 3200 
Q 1909 2813 2125 2425 
Q 2331 2784 2625 3234 
L 3513 4581 
L 4219 4581 
L 2391 1941 
L 2391 0 
L 1784 0 
z
" transform="scale(0.015625)"/>
       <path id="ArialMT-65" d="M 2694 1069 
L 3275 997 
Q 3138 488 2766 206 
Q 2394 -75 1816 -75 
Q 1088 -75 661 373 
Q 234 822 234 1631 
Q 234 2469 665 2931 
Q 1097 3394 1784 3394 
Q 2450 3394 2872 2941 
Q 3294 2488 3294 1666 
Q 3294 1616 3291 1516 
L 816 1516 
Q 847 969 1125 678 
Q 1403 388 1819 388 
Q 2128 388 2347 550 
Q 2566 713 2694 1069 
z
M 847 1978 
L 2700 1978 
Q 2663 2397 2488 2606 
Q 2219 2931 1791 2931 
Q 1403 2931 1139 2672 
Q 875 2413 847 1978 
z
" transform="scale(0.015625)"/>
       <path id="ArialMT-61" d="M 2588 409 
Q 2275 144 1986 34 
Q 1697 -75 1366 -75 
Q 819 -75 525 192 
Q 231 459 231 875 
Q 231 1119 342 1320 
Q 453 1522 633 1644 
Q 813 1766 1038 1828 
Q 1203 1872 1538 1913 
Q 2219 1994 2541 2106 
Q 2544 2222 2544 2253 
Q 2544 2597 2384 2738 
Q 2169 2928 1744 2928 
Q 1347 2928 1158 2789 
Q 969 2650 878 2297 
L 328 2372 
Q 403 2725 575 2942 
Q 747 3159 1072 3276 
Q 1397 3394 1825 3394 
Q 2250 3394 2515 3294 
Q 2781 3194 2906 3042 
Q 3031 2891 3081 2659 
Q 3109 2516 3109 2141 
L 3109 1391 
Q 3109 606 3145 398 
Q 3181 191 3288 0 
L 2700 0 
Q 2613 175 2588 409 
z
M 2541 1666 
Q 2234 1541 1622 1453 
Q 1275 1403 1131 1340 
Q 988 1278 909 1158 
Q 831 1038 831 891 
Q 831 666 1001 516 
Q 1172 366 1500 366 
Q 1825 366 2078 508 
Q 2331 650 2450 897 
Q 2541 1088 2541 1459 
L 2541 1666 
z
" transform="scale(0.015625)"/>
       <path id="ArialMT-72" d="M 416 0 
L 416 3319 
L 922 3319 
L 922 2816 
Q 1116 3169 1280 3281 
Q 1444 3394 1641 3394 
Q 1925 3394 2219 3213 
L 2025 2691 
Q 1819 2813 1613 2813 
Q 1428 2813 1281 2702 
Q 1134 2591 1072 2394 
Q 978 2094 978 1738 
L 978 0 
L 416 0 
z
" transform="scale(0.015625)"/>
      </defs>
      <use xlink:href="#ArialMT-59"/>
      <use xlink:href="#ArialMT-65" x="57.574219"/>
      <use xlink:href="#ArialMT-61" x="113.189453"/>
      <use xlink:href="#ArialMT-72" x="168.804688"/>
     </g>
    </g>
   </g>
   <g id="matplotlib.axis_2">
    <g id="ytick_1">
     <g id="text_10">
      <!-- 300 -->
      <g style="fill: #262626" transform="translate(25.839625 323.997601) scale(0.143 -0.143)">
       <defs>
        <path id="ArialMT-33" d="M 269 1209 
L 831 1284 
Q 928 806 1161 595 
Q 1394 384 1728 384 
Q 2125 384 2398 659 
Q 2672 934 2672 1341 
Q 2672 1728 2419 1979 
Q 2166 2231 1775 2231 
Q 1616 2231 1378 2169 
L 1441 2663 
Q 1497 2656 1531 2656 
Q 1891 2656 2178 2843 
Q 2466 3031 2466 3422 
Q 2466 3731 2256 3934 
Q 2047 4138 1716 4138 
Q 1388 4138 1169 3931 
Q 950 3725 888 3313 
L 325 3413 
Q 428 3978 793 4289 
Q 1159 4600 1703 4600 
Q 2078 4600 2393 4439 
Q 2709 4278 2876 4000 
Q 3044 3722 3044 3409 
Q 3044 3113 2884 2869 
Q 2725 2625 2413 2481 
Q 2819 2388 3044 2092 
Q 3269 1797 3269 1353 
Q 3269 753 2831 336 
Q 2394 -81 1725 -81 
Q 1122 -81 723 278 
Q 325 638 269 1209 
z
" transform="scale(0.015625)"/>
       </defs>
       <use xlink:href="#ArialMT-33"/>
       <use xlink:href="#ArialMT-30" x="55.615234"/>
       <use xlink:href="#ArialMT-30" x="111.230469"/>
      </g>
     </g>
    </g>
    <g id="ytick_2">
     <g id="text_11">
      <!-- 400 -->
      <g style="fill: #262626" transform="translate(25.839625 279.053918) scale(0.143 -0.143)">
       <use xlink:href="#ArialMT-34"/>
       <use xlink:href="#ArialMT-30" x="55.615234"/>
       <use xlink:href="#ArialMT-30" x="111.230469"/>
      </g>
     </g>
    </g>
    <g id="ytick_3">
     <g id="text_12">
      <!-- 500 -->
      <g style="fill: #262626" transform="translate(25.839625 234.110236) scale(0.143 -0.143)">
       <defs>
        <path id="ArialMT-35" d="M 266 1200 
L 856 1250 
Q 922 819 1161 601 
Q 1400 384 1738 384 
Q 2144 384 2425 690 
Q 2706 997 2706 1503 
Q 2706 1984 2436 2262 
Q 2166 2541 1728 2541 
Q 1456 2541 1237 2417 
Q 1019 2294 894 2097 
L 366 2166 
L 809 4519 
L 3088 4519 
L 3088 3981 
L 1259 3981 
L 1013 2750 
Q 1425 3038 1878 3038 
Q 2478 3038 2890 2622 
Q 3303 2206 3303 1553 
Q 3303 931 2941 478 
Q 2500 -78 1738 -78 
Q 1113 -78 717 272 
Q 322 622 266 1200 
z
" transform="scale(0.015625)"/>
       </defs>
       <use xlink:href="#ArialMT-35"/>
       <use xlink:href="#ArialMT-30" x="55.615234"/>
       <use xlink:href="#ArialMT-30" x="111.230469"/>
      </g>
     </g>
    </g>
    <g id="ytick_4">
     <g id="text_13">
      <!-- 600 -->
      <g style="fill: #262626" transform="translate(25.839625 189.166554) scale(0.143 -0.143)">
       <use xlink:href="#ArialMT-36"/>
       <use xlink:href="#ArialMT-30" x="55.615234"/>
       <use xlink:href="#ArialMT-30" x="111.230469"/>
      </g>
     </g>
    </g>
    <g id="ytick_5">
     <g id="text_14">
      <!-- 700 -->
      <g style="fill: #262626" transform="translate(25.839625 144.222872) scale(0.143 -0.143)">
       <defs>
        <path id="ArialMT-37" d="M 303 3981 
L 303 4522 
L 3269 4522 
L 3269 4084 
Q 2831 3619 2401 2847 
Q 1972 2075 1738 1259 
Q 1569 684 1522 0 
L 944 0 
Q 953 541 1156 1306 
Q 1359 2072 1739 2783 
Q 2119 3494 2547 3981 
L 303 3981 
z
" transform="scale(0.015625)"/>
       </defs>
       <use xlink:href="#ArialMT-37"/>
       <use xlink:href="#ArialMT-30" x="55.615234"/>
       <use xlink:href="#ArialMT-30" x="111.230469"/>
      </g>
     </g>
    </g>
    <g id="ytick_6">
     <g id="text_15">
      <!-- 800 -->
      <g style="fill: #262626" transform="translate(25.839625 99.27919) scale(0.143 -0.143)">
       <use xlink:href="#ArialMT-38"/>
       <use xlink:href="#ArialMT-30" x="55.615234"/>
       <use xlink:href="#ArialMT-30" x="111.230469"/>
      </g>
     </g>
    </g>
    <g id="text_16">
     <!-- Burned Area (in Mha) -->
     <g style="fill: #262626" transform="translate(18.556312 271.548656) rotate(-90) scale(0.156 -0.156)">
      <defs>
       <path id="ArialMT-42" d="M 469 0 
L 469 4581 
L 2188 4581 
Q 2713 4581 3030 4442 
Q 3347 4303 3526 4014 
Q 3706 3725 3706 3409 
Q 3706 3116 3547 2856 
Q 3388 2597 3066 2438 
Q 3481 2316 3704 2022 
Q 3928 1728 3928 1328 
Q 3928 1006 3792 729 
Q 3656 453 3456 303 
Q 3256 153 2954 76 
Q 2653 0 2216 0 
L 469 0 
z
M 1075 2656 
L 2066 2656 
Q 2469 2656 2644 2709 
Q 2875 2778 2992 2937 
Q 3109 3097 3109 3338 
Q 3109 3566 3000 3739 
Q 2891 3913 2687 3977 
Q 2484 4041 1991 4041 
L 1075 4041 
L 1075 2656 
z
M 1075 541 
L 2216 541 
Q 2509 541 2628 563 
Q 2838 600 2978 687 
Q 3119 775 3209 942 
Q 3300 1109 3300 1328 
Q 3300 1584 3169 1773 
Q 3038 1963 2805 2039 
Q 2572 2116 2134 2116 
L 1075 2116 
L 1075 541 
z
" transform="scale(0.015625)"/>
       <path id="ArialMT-75" d="M 2597 0 
L 2597 488 
Q 2209 -75 1544 -75 
Q 1250 -75 995 37 
Q 741 150 617 320 
Q 494 491 444 738 
Q 409 903 409 1263 
L 409 3319 
L 972 3319 
L 972 1478 
Q 972 1038 1006 884 
Q 1059 663 1231 536 
Q 1403 409 1656 409 
Q 1909 409 2131 539 
Q 2353 669 2445 892 
Q 2538 1116 2538 1541 
L 2538 3319 
L 3100 3319 
L 3100 0 
L 2597 0 
z
" transform="scale(0.015625)"/>
       <path id="ArialMT-6e" d="M 422 0 
L 422 3319 
L 928 3319 
L 928 2847 
Q 1294 3394 1984 3394 
Q 2284 3394 2536 3286 
Q 2788 3178 2913 3003 
Q 3038 2828 3088 2588 
Q 3119 2431 3119 2041 
L 3119 0 
L 2556 0 
L 2556 2019 
Q 2556 2363 2490 2533 
Q 2425 2703 2258 2804 
Q 2091 2906 1866 2906 
Q 1506 2906 1245 2678 
Q 984 2450 984 1813 
L 984 0 
L 422 0 
z
" transform="scale(0.015625)"/>
       <path id="ArialMT-64" d="M 2575 0 
L 2575 419 
Q 2259 -75 1647 -75 
Q 1250 -75 917 144 
Q 584 363 401 755 
Q 219 1147 219 1656 
Q 219 2153 384 2558 
Q 550 2963 881 3178 
Q 1213 3394 1622 3394 
Q 1922 3394 2156 3267 
Q 2391 3141 2538 2938 
L 2538 4581 
L 3097 4581 
L 3097 0 
L 2575 0 
z
M 797 1656 
Q 797 1019 1065 703 
Q 1334 388 1700 388 
Q 2069 388 2326 689 
Q 2584 991 2584 1609 
Q 2584 2291 2321 2609 
Q 2059 2928 1675 2928 
Q 1300 2928 1048 2622 
Q 797 2316 797 1656 
z
" transform="scale(0.015625)"/>
       <path id="ArialMT-20" transform="scale(0.015625)"/>
       <path id="ArialMT-41" d="M -9 0 
L 1750 4581 
L 2403 4581 
L 4278 0 
L 3588 0 
L 3053 1388 
L 1138 1388 
L 634 0 
L -9 0 
z
M 1313 1881 
L 2866 1881 
L 2388 3150 
Q 2169 3728 2063 4100 
Q 1975 3659 1816 3225 
L 1313 1881 
z
" transform="scale(0.015625)"/>
       <path id="ArialMT-28" d="M 1497 -1347 
Q 1031 -759 709 28 
Q 388 816 388 1659 
Q 388 2403 628 3084 
Q 909 3875 1497 4659 
L 1900 4659 
Q 1522 4009 1400 3731 
Q 1209 3300 1100 2831 
Q 966 2247 966 1656 
Q 966 153 1900 -1347 
L 1497 -1347 
z
" transform="scale(0.015625)"/>
       <path id="ArialMT-69" d="M 425 3934 
L 425 4581 
L 988 4581 
L 988 3934 
L 425 3934 
z
M 425 0 
L 425 3319 
L 988 3319 
L 988 0 
L 425 0 
z
" transform="scale(0.015625)"/>
       <path id="ArialMT-4d" d="M 475 0 
L 475 4581 
L 1388 4581 
L 2472 1338 
Q 2622 884 2691 659 
Q 2769 909 2934 1394 
L 4031 4581 
L 4847 4581 
L 4847 0 
L 4263 0 
L 4263 3834 
L 2931 0 
L 2384 0 
L 1059 3900 
L 1059 0 
L 475 0 
z
" transform="scale(0.015625)"/>
       <path id="ArialMT-68" d="M 422 0 
L 422 4581 
L 984 4581 
L 984 2938 
Q 1378 3394 1978 3394 
Q 2347 3394 2619 3248 
Q 2891 3103 3008 2847 
Q 3125 2591 3125 2103 
L 3125 0 
L 2563 0 
L 2563 2103 
Q 2563 2525 2380 2717 
Q 2197 2909 1863 2909 
Q 1613 2909 1392 2779 
Q 1172 2650 1078 2428 
Q 984 2206 984 1816 
L 984 0 
L 422 0 
z
" transform="scale(0.015625)"/>
       <path id="ArialMT-29" d="M 791 -1347 
L 388 -1347 
Q 1322 153 1322 1656 
Q 1322 2244 1188 2822 
Q 1081 3291 891 3722 
Q 769 4003 388 4659 
L 791 4659 
Q 1378 3875 1659 3084 
Q 1900 2403 1900 1659 
Q 1900 816 1576 28 
Q 1253 -759 791 -1347 
z
" transform="scale(0.015625)"/>
      </defs>
      <use xlink:href="#ArialMT-42"/>
      <use xlink:href="#ArialMT-75" x="66.699219"/>
      <use xlink:href="#ArialMT-72" x="122.314453"/>
      <use xlink:href="#ArialMT-6e" x="155.615234"/>
      <use xlink:href="#ArialMT-65" x="211.230469"/>
      <use xlink:href="#ArialMT-64" x="266.845703"/>
      <use xlink:href="#ArialMT-20" x="322.460938"/>
      <use xlink:href="#ArialMT-41" x="344.744141"/>
      <use xlink:href="#ArialMT-72" x="411.443359"/>
      <use xlink:href="#ArialMT-65" x="444.744141"/>
      <use xlink:href="#ArialMT-61" x="500.359375"/>
      <use xlink:href="#ArialMT-20" x="555.974609"/>
      <use xlink:href="#ArialMT-28" x="583.757812"/>
      <use xlink:href="#ArialMT-69" x="617.058594"/>
      <use xlink:href="#ArialMT-6e" x="639.275391"/>
      <use xlink:href="#ArialMT-20" x="694.890625"/>
      <use xlink:href="#ArialMT-4d" x="722.673828"/>
      <use xlink:href="#ArialMT-68" x="805.974609"/>
      <use xlink:href="#ArialMT-61" x="861.589844"/>
      <use xlink:href="#ArialMT-29" x="917.205078"/>
     </g>
    </g>
   </g>
   <g id="PolyCollection_1"/>
   <g id="PolyCollection_2"/>
   <g id="PolyCollection_3"/>
   <g id="PolyCollection_4"/>
   <g id="PolyCollection_5"/>
   <g id="PolyCollection_6"/>
   <g id="PolyCollection_7"/>
   <g id="PolyCollection_8"/>
   <g id="PolyCollection_9"/>
   <g id="line2d_1">
    <path d="M 82.253898 236.544283 
L 111.076212 220.736873 
L 139.898526 224.764725 
L 168.72084 238.218597 
L 197.543154 222.355698 
L 226.365468 232.755192 
L 255.187782 255.734938 
L 284.010096 241.262441 
L 312.832411 226.36557 
L 341.654725 228.683367 
L 370.477039 274.656356 
L 399.299353 258.693749 
L 428.121667 256.478571 
L 456.943981 267.27856 
L 485.766295 255.33506 
L 514.588609 267.173948 
L 543.410923 278.225216 
" clip-path="url(#p8438b1a0a0)" style="fill: none; stroke: #4c72b0; stroke-width: 1.5; stroke-linecap: round"/>
   </g>
   <g id="line2d_2">
    <path d="M 82.253898 87.010341 
L 111.076212 70.050452 
L 139.898526 82.501652 
L 168.72084 107.931139 
L 197.543154 83.108414 
L 226.365468 84.659674 
L 255.187782 112.138394 
L 284.010096 113.09361 
L 312.832411 95.334786 
L 341.654725 98.690511 
L 370.477039 140.050072 
L 399.299353 128.145985 
L 428.121667 119.044344 
L 456.943981 121.736559 
L 485.766295 123.890696 
L 514.588609 145.795631 
L 543.410923 147.428322 
" clip-path="url(#p8438b1a0a0)" style="fill: none; stroke: #dd8452; stroke-width: 1.5; stroke-linecap: round"/>
   </g>
   <g id="line2d_3">
    <path d="M 82.253898 144.221816 
L 111.076212 153.917243 
L 139.898526 129.131348 
L 168.72084 155.526011 
L 197.543154 129.564433 
L 226.365468 127.340483 
L 255.187782 154.701144 
L 284.010096 150.818915 
L 312.832411 150.372213 
L 341.654725 130.593546 
L 370.477039 164.093554 
L 399.299353 176.866577 
L 428.121667 155.552418 
L 456.943981 171.399481 
L 485.766295 174.792062 
L 514.588609 164.495485 
L 543.410923 163.774056 
" clip-path="url(#p8438b1a0a0)" style="fill: none; stroke-dasharray: 1,1.65; stroke-dashoffset: 0; stroke: #55a868"/>
   </g>
   <g id="line2d_4">
    <path d="M 82.253898 239.44876 
L 111.076212 231.208025 
L 139.898526 225.604927 
L 168.72084 232.426215 
L 197.543154 219.694882 
L 226.365468 227.927851 
L 255.187782 236.091564 
L 284.010096 226.751127 
L 312.832411 231.802257 
L 341.654725 227.296152 
L 370.477039 240.849779 
L 399.299353 233.396703 
L 428.121667 225.647988 
L 456.943981 233.78676 
L 485.766295 231.040376 
L 514.588609 239.27358 
L 543.410923 234.163133 
" clip-path="url(#p8438b1a0a0)" style="fill: none; stroke-dasharray: 1,1.65; stroke-dashoffset: 0; stroke: #c44e52"/>
   </g>
   <g id="line2d_5">
    <path d="M 82.253898 244.523663 
L 111.076212 251.263785 
L 139.898526 255.781442 
L 168.72084 250.302102 
L 197.543154 253.277382 
L 226.365468 245.742666 
L 255.187782 250.016769 
L 284.010096 259.343365 
L 312.832411 257.372707 
L 341.654725 255.220671 
L 370.477039 249.506979 
L 399.299353 260.738932 
L 428.121667 261.413658 
L 456.943981 254.630268 
L 485.766295 261.908184 
L 514.588609 260.137841 
L 543.410923 264.431113 
" clip-path="url(#p8438b1a0a0)" style="fill: none; stroke-dasharray: 1,1.65; stroke-dashoffset: 0; stroke: #8172b3"/>
   </g>
   <g id="line2d_6">
    <path d="M 82.253898 270.789517 
L 111.076212 245.919866 
L 139.898526 240.33827 
L 168.72084 246.17596 
L 197.543154 233.678517 
L 226.365468 257.214707 
L 255.187782 283.423703 
L 284.010096 252.09163 
L 312.832411 279.924833 
L 341.654725 272.998882 
L 370.477039 285.086688 
L 399.299353 261.360879 
L 428.121667 244.46198 
L 456.943981 231.988786 
L 485.766295 250.983848 
L 514.588609 239.364686 
L 543.410923 237.202143 
" clip-path="url(#p8438b1a0a0)" style="fill: none; stroke-dasharray: 1,1.65; stroke-dashoffset: 0; stroke: #937860"/>
   </g>
   <g id="line2d_7">
    <path d="M 82.253898 206.096078 
L 111.076212 200.938238 
L 139.898526 205.883105 
L 168.72084 209.453043 
L 197.543154 200.853315 
L 226.365468 199.151624 
L 255.187782 209.574884 
L 284.010096 190.980508 
L 312.832411 193.4322 
L 341.654725 180.74698 
L 370.477039 192.72247 
L 399.299353 179.610333 
L 428.121667 188.451303 
L 456.943981 202.15406 
L 485.766295 191.052098 
L 514.588609 167.919657 
L 543.410923 189.446808 
" clip-path="url(#p8438b1a0a0)" style="fill: none; stroke-dasharray: 1,1.65; stroke-dashoffset: 0; stroke: #da8bc3"/>
   </g>
   <g id="line2d_8">
    <path d="M 82.253898 251.291682 
L 111.076212 247.13169 
L 139.898526 237.44231 
L 168.72084 249.668595 
L 197.543154 235.666157 
L 226.365468 237.893777 
L 255.187782 253.277583 
L 284.010096 252.480272 
L 312.832411 242.506809 
L 341.654725 236.48994 
L 370.477039 249.233395 
L 399.299353 256.213229 
L 428.121667 247.569238 
L 456.943981 247.785271 
L 485.766295 250.649536 
L 514.588609 261.993207 
L 543.410923 257.613508 
" clip-path="url(#p8438b1a0a0)" style="fill: none; stroke-dasharray: 1,1.65; stroke-dashoffset: 0; stroke: #8c8c8c"/>
   </g>
   <g id="line2d_9">
    <path d="M 82.253898 257.715124 
L 111.076212 316.164439 
L 139.898526 254.813505 
L 168.72084 307.00706 
L 197.543154 275.516153 
L 226.365468 255.904436 
L 255.187782 268.431247 
L 284.010096 317.694988 
L 312.832411 307.90099 
L 341.654725 269.305491 
L 370.477039 246.500413 
L 399.299353 285.489467 
L 428.121667 252.755768 
L 456.943981 278.146774 
L 485.766295 298.909947 
L 514.588609 272.301763 
L 543.410923 190.555195 
" clip-path="url(#p8438b1a0a0)" style="fill: none; stroke-dasharray: 1,1.65; stroke-dashoffset: 0; stroke: #ccb974"/>
   </g>
   <g id="line2d_10"/>
   <g id="line2d_11"/>
   <g id="line2d_12"/>
   <g id="line2d_13"/>
   <g id="line2d_14"/>
   <g id="line2d_15"/>
   <g id="line2d_16"/>
   <g id="line2d_17"/>
   <g id="line2d_18"/>
   <g id="patch_3">
    <path d="M 59.196047 336.014531 
L 59.196047 58.814531 
" style="fill: none; stroke: #262626; stroke-width: 1.25; stroke-linejoin: miter; stroke-linecap: square"/>
   </g>
   <g id="patch_4">
    <path d="M 59.196047 336.014531 
L 566.468774 336.014531 
" style="fill: none; stroke: #262626; stroke-width: 1.25; stroke-linejoin: miter; stroke-linecap: square"/>
   </g>
   <g id="text_17">
    <!-- Burned Area -->
    <g style="fill: #262626" transform="translate(243.340223 25.094531) scale(0.25 -0.25)">
     <use xlink:href="#ArialMT-42"/>
     <use xlink:href="#ArialMT-75" x="66.699219"/>
     <use xlink:href="#ArialMT-72" x="122.314453"/>
     <use xlink:href="#ArialMT-6e" x="155.615234"/>
     <use xlink:href="#ArialMT-65" x="211.230469"/>
     <use xlink:href="#ArialMT-64" x="266.845703"/>
     <use xlink:href="#ArialMT-20" x="322.460938"/>
     <use xlink:href="#ArialMT-41" x="344.744141"/>
     <use xlink:href="#ArialMT-72" x="411.443359"/>
     <use xlink:href="#ArialMT-65" x="444.744141"/>
     <use xlink:href="#ArialMT-61" x="500.359375"/>
    </g>
   </g>
   <g id="legend_1">
    <g id="line2d_19">
     <path d="M 239.340899 408.188281 
L 256.940899 408.188281 
L 274.540899 408.188281 
" style="fill: none; stroke: #4c72b0; stroke-width: 1.5; stroke-linecap: round"/>
    </g>
    <g id="text_18">
     <!-- FireCCI5.1 -->
     <g style="fill: #262626" transform="translate(288.620899 414.348281) scale(0.176 -0.176)">
      <defs>
       <path id="ArialMT-46" d="M 525 0 
L 525 4581 
L 3616 4581 
L 3616 4041 
L 1131 4041 
L 1131 2622 
L 3281 2622 
L 3281 2081 
L 1131 2081 
L 1131 0 
L 525 0 
z
" transform="scale(0.015625)"/>
       <path id="ArialMT-43" d="M 3763 1606 
L 4369 1453 
Q 4178 706 3683 314 
Q 3188 -78 2472 -78 
Q 1731 -78 1267 223 
Q 803 525 561 1097 
Q 319 1669 319 2325 
Q 319 3041 592 3573 
Q 866 4106 1370 4382 
Q 1875 4659 2481 4659 
Q 3169 4659 3637 4309 
Q 4106 3959 4291 3325 
L 3694 3184 
Q 3534 3684 3231 3912 
Q 2928 4141 2469 4141 
Q 1941 4141 1586 3887 
Q 1231 3634 1087 3207 
Q 944 2781 944 2328 
Q 944 1744 1114 1308 
Q 1284 872 1643 656 
Q 2003 441 2422 441 
Q 2931 441 3284 734 
Q 3638 1028 3763 1606 
z
" transform="scale(0.015625)"/>
       <path id="ArialMT-49" d="M 597 0 
L 597 4581 
L 1203 4581 
L 1203 0 
L 597 0 
z
" transform="scale(0.015625)"/>
       <path id="ArialMT-2e" d="M 581 0 
L 581 641 
L 1222 641 
L 1222 0 
L 581 0 
z
" transform="scale(0.015625)"/>
      </defs>
      <use xlink:href="#ArialMT-46"/>
      <use xlink:href="#ArialMT-69" x="61.083984"/>
      <use xlink:href="#ArialMT-72" x="83.300781"/>
      <use xlink:href="#ArialMT-65" x="116.601562"/>
      <use xlink:href="#ArialMT-43" x="172.216797"/>
      <use xlink:href="#ArialMT-43" x="244.433594"/>
      <use xlink:href="#ArialMT-49" x="316.650391"/>
      <use xlink:href="#ArialMT-35" x="344.433594"/>
      <use xlink:href="#ArialMT-2e" x="400.048828"/>
      <use xlink:href="#ArialMT-31" x="427.832031"/>
     </g>
    </g>
    <g id="line2d_20">
     <path d="M 239.340899 433.084031 
L 256.940899 433.084031 
L 274.540899 433.084031 
" style="fill: none; stroke: #dd8452; stroke-width: 1.5; stroke-linecap: round"/>
    </g>
    <g id="text_19">
     <!-- GFED5 -->
     <g style="fill: #262626" transform="translate(288.620899 439.244031) scale(0.176 -0.176)">
      <defs>
       <path id="ArialMT-47" d="M 2638 1797 
L 2638 2334 
L 4578 2338 
L 4578 638 
Q 4131 281 3656 101 
Q 3181 -78 2681 -78 
Q 2006 -78 1454 211 
Q 903 500 622 1047 
Q 341 1594 341 2269 
Q 341 2938 620 3517 
Q 900 4097 1425 4378 
Q 1950 4659 2634 4659 
Q 3131 4659 3532 4498 
Q 3934 4338 4162 4050 
Q 4391 3763 4509 3300 
L 3963 3150 
Q 3859 3500 3706 3700 
Q 3553 3900 3268 4020 
Q 2984 4141 2638 4141 
Q 2222 4141 1919 4014 
Q 1616 3888 1430 3681 
Q 1244 3475 1141 3228 
Q 966 2803 966 2306 
Q 966 1694 1177 1281 
Q 1388 869 1791 669 
Q 2194 469 2647 469 
Q 3041 469 3416 620 
Q 3791 772 3984 944 
L 3984 1797 
L 2638 1797 
z
" transform="scale(0.015625)"/>
       <path id="ArialMT-45" d="M 506 0 
L 506 4581 
L 3819 4581 
L 3819 4041 
L 1113 4041 
L 1113 2638 
L 3647 2638 
L 3647 2100 
L 1113 2100 
L 1113 541 
L 3925 541 
L 3925 0 
L 506 0 
z
" transform="scale(0.015625)"/>
       <path id="ArialMT-44" d="M 494 0 
L 494 4581 
L 2072 4581 
Q 2606 4581 2888 4516 
Q 3281 4425 3559 4188 
Q 3922 3881 4101 3404 
Q 4281 2928 4281 2316 
Q 4281 1794 4159 1391 
Q 4038 988 3847 723 
Q 3656 459 3429 307 
Q 3203 156 2883 78 
Q 2563 0 2147 0 
L 494 0 
z
M 1100 541 
L 2078 541 
Q 2531 541 2789 625 
Q 3047 709 3200 863 
Q 3416 1078 3536 1442 
Q 3656 1806 3656 2325 
Q 3656 3044 3420 3430 
Q 3184 3816 2847 3947 
Q 2603 4041 2063 4041 
L 1100 4041 
L 1100 541 
z
" transform="scale(0.015625)"/>
      </defs>
      <use xlink:href="#ArialMT-47"/>
      <use xlink:href="#ArialMT-46" x="77.783203"/>
      <use xlink:href="#ArialMT-45" x="138.867188"/>
      <use xlink:href="#ArialMT-44" x="205.566406"/>
      <use xlink:href="#ArialMT-35" x="277.783203"/>
     </g>
    </g>
    <g id="line2d_21">
     <path d="M 239.340899 457.979781 
L 256.940899 457.979781 
L 274.540899 457.979781 
" style="fill: none; stroke: #55a868; stroke-width: 1.5; stroke-linecap: round"/>
    </g>
    <g id="text_20">
     <!-- CLASSIC -->
     <g style="fill: #262626" transform="translate(288.620899 464.139781) scale(0.176 -0.176)">
      <defs>
       <path id="ArialMT-4c" d="M 469 0 
L 469 4581 
L 1075 4581 
L 1075 541 
L 3331 541 
L 3331 0 
L 469 0 
z
" transform="scale(0.015625)"/>
       <path id="ArialMT-53" d="M 288 1472 
L 859 1522 
Q 900 1178 1048 958 
Q 1197 738 1509 602 
Q 1822 466 2213 466 
Q 2559 466 2825 569 
Q 3091 672 3220 851 
Q 3350 1031 3350 1244 
Q 3350 1459 3225 1620 
Q 3100 1781 2813 1891 
Q 2628 1963 1997 2114 
Q 1366 2266 1113 2400 
Q 784 2572 623 2826 
Q 463 3081 463 3397 
Q 463 3744 659 4045 
Q 856 4347 1234 4503 
Q 1613 4659 2075 4659 
Q 2584 4659 2973 4495 
Q 3363 4331 3572 4012 
Q 3781 3694 3797 3291 
L 3216 3247 
Q 3169 3681 2898 3903 
Q 2628 4125 2100 4125 
Q 1550 4125 1298 3923 
Q 1047 3722 1047 3438 
Q 1047 3191 1225 3031 
Q 1400 2872 2139 2705 
Q 2878 2538 3153 2413 
Q 3553 2228 3743 1945 
Q 3934 1663 3934 1294 
Q 3934 928 3725 604 
Q 3516 281 3123 101 
Q 2731 -78 2241 -78 
Q 1619 -78 1198 103 
Q 778 284 539 648 
Q 300 1013 288 1472 
z
" transform="scale(0.015625)"/>
      </defs>
      <use xlink:href="#ArialMT-43"/>
      <use xlink:href="#ArialMT-4c" x="72.216797"/>
      <use xlink:href="#ArialMT-41" x="127.832031"/>
      <use xlink:href="#ArialMT-53" x="194.53125"/>
      <use xlink:href="#ArialMT-53" x="261.230469"/>
      <use xlink:href="#ArialMT-49" x="327.929688"/>
      <use xlink:href="#ArialMT-43" x="355.712891"/>
     </g>
    </g>
    <g id="line2d_22">
     <path d="M 408.903149 408.188281 
L 426.503149 408.188281 
L 444.103149 408.188281 
" style="fill: none; stroke: #c44e52; stroke-width: 1.5; stroke-linecap: round"/>
    </g>
    <g id="text_21">
     <!-- JULES -->
     <g style="fill: #262626" transform="translate(458.183149 414.348281) scale(0.176 -0.176)">
      <defs>
       <path id="ArialMT-4a" d="M 184 1300 
L 731 1375 
Q 753 850 928 656 
Q 1103 463 1413 463 
Q 1641 463 1806 567 
Q 1972 672 2034 851 
Q 2097 1031 2097 1425 
L 2097 4581 
L 2703 4581 
L 2703 1459 
Q 2703 884 2564 568 
Q 2425 253 2123 87 
Q 1822 -78 1416 -78 
Q 813 -78 492 269 
Q 172 616 184 1300 
z
" transform="scale(0.015625)"/>
       <path id="ArialMT-55" d="M 3500 4581 
L 4106 4581 
L 4106 1934 
Q 4106 1244 3950 837 
Q 3794 431 3386 176 
Q 2978 -78 2316 -78 
Q 1672 -78 1262 144 
Q 853 366 678 786 
Q 503 1206 503 1934 
L 503 4581 
L 1109 4581 
L 1109 1938 
Q 1109 1341 1220 1058 
Q 1331 775 1601 622 
Q 1872 469 2263 469 
Q 2931 469 3215 772 
Q 3500 1075 3500 1938 
L 3500 4581 
z
" transform="scale(0.015625)"/>
      </defs>
      <use xlink:href="#ArialMT-4a"/>
      <use xlink:href="#ArialMT-55" x="50"/>
      <use xlink:href="#ArialMT-4c" x="122.216797"/>
      <use xlink:href="#ArialMT-45" x="177.832031"/>
      <use xlink:href="#ArialMT-53" x="244.53125"/>
     </g>
    </g>
    <g id="line2d_23">
     <path d="M 408.903149 433.084031 
L 426.503149 433.084031 
L 444.103149 433.084031 
" style="fill: none; stroke: #8172b3; stroke-width: 1.5; stroke-linecap: round"/>
    </g>
    <g id="text_22">
     <!-- LPJ-GUESS-SIMFIRE-BLAZE -->
     <g style="fill: #262626" transform="translate(458.183149 439.244031) scale(0.176 -0.176)">
      <defs>
       <path id="ArialMT-50" d="M 494 0 
L 494 4581 
L 2222 4581 
Q 2678 4581 2919 4538 
Q 3256 4481 3484 4323 
Q 3713 4166 3852 3881 
Q 3991 3597 3991 3256 
Q 3991 2672 3619 2267 
Q 3247 1863 2275 1863 
L 1100 1863 
L 1100 0 
L 494 0 
z
M 1100 2403 
L 2284 2403 
Q 2872 2403 3119 2622 
Q 3366 2841 3366 3238 
Q 3366 3525 3220 3729 
Q 3075 3934 2838 4000 
Q 2684 4041 2272 4041 
L 1100 4041 
L 1100 2403 
z
" transform="scale(0.015625)"/>
       <path id="ArialMT-2d" d="M 203 1375 
L 203 1941 
L 1931 1941 
L 1931 1375 
L 203 1375 
z
" transform="scale(0.015625)"/>
       <path id="ArialMT-52" d="M 503 0 
L 503 4581 
L 2534 4581 
Q 3147 4581 3465 4457 
Q 3784 4334 3975 4021 
Q 4166 3709 4166 3331 
Q 4166 2844 3850 2509 
Q 3534 2175 2875 2084 
Q 3116 1969 3241 1856 
Q 3506 1613 3744 1247 
L 4541 0 
L 3778 0 
L 3172 953 
Q 2906 1366 2734 1584 
Q 2563 1803 2427 1890 
Q 2291 1978 2150 2013 
Q 2047 2034 1813 2034 
L 1109 2034 
L 1109 0 
L 503 0 
z
M 1109 2559 
L 2413 2559 
Q 2828 2559 3062 2645 
Q 3297 2731 3419 2920 
Q 3541 3109 3541 3331 
Q 3541 3656 3305 3865 
Q 3069 4075 2559 4075 
L 1109 4075 
L 1109 2559 
z
" transform="scale(0.015625)"/>
       <path id="ArialMT-5a" d="M 128 0 
L 128 563 
L 2475 3497 
Q 2725 3809 2950 4041 
L 394 4041 
L 394 4581 
L 3675 4581 
L 3675 4041 
L 1103 863 
L 825 541 
L 3750 541 
L 3750 0 
L 128 0 
z
" transform="scale(0.015625)"/>
      </defs>
      <use xlink:href="#ArialMT-4c"/>
      <use xlink:href="#ArialMT-50" x="55.615234"/>
      <use xlink:href="#ArialMT-4a" x="122.314453"/>
      <use xlink:href="#ArialMT-2d" x="172.314453"/>
      <use xlink:href="#ArialMT-47" x="205.615234"/>
      <use xlink:href="#ArialMT-55" x="283.398438"/>
      <use xlink:href="#ArialMT-45" x="355.615234"/>
      <use xlink:href="#ArialMT-53" x="422.314453"/>
      <use xlink:href="#ArialMT-53" x="489.013672"/>
      <use xlink:href="#ArialMT-2d" x="555.712891"/>
      <use xlink:href="#ArialMT-53" x="589.013672"/>
      <use xlink:href="#ArialMT-49" x="655.712891"/>
      <use xlink:href="#ArialMT-4d" x="683.496094"/>
      <use xlink:href="#ArialMT-46" x="766.796875"/>
      <use xlink:href="#ArialMT-49" x="827.880859"/>
      <use xlink:href="#ArialMT-52" x="855.664062"/>
      <use xlink:href="#ArialMT-45" x="927.880859"/>
      <use xlink:href="#ArialMT-2d" x="994.580078"/>
      <use xlink:href="#ArialMT-42" x="1027.880859"/>
      <use xlink:href="#ArialMT-4c" x="1094.580078"/>
      <use xlink:href="#ArialMT-41" x="1150.195312"/>
      <use xlink:href="#ArialMT-5a" x="1216.894531"/>
      <use xlink:href="#ArialMT-45" x="1277.978516"/>
     </g>
    </g>
    <g id="line2d_24">
     <path d="M 408.903149 457.979781 
L 426.503149 457.979781 
L 444.103149 457.979781 
" style="fill: none; stroke: #937860; stroke-width: 1.5; stroke-linecap: round"/>
    </g>
    <g id="text_23">
     <!-- LPJ-GUESS-SPITFIRE -->
     <g style="fill: #262626" transform="translate(458.183149 464.139781) scale(0.176 -0.176)">
      <defs>
       <path id="ArialMT-54" d="M 1659 0 
L 1659 4041 
L 150 4041 
L 150 4581 
L 3781 4581 
L 3781 4041 
L 2266 4041 
L 2266 0 
L 1659 0 
z
" transform="scale(0.015625)"/>
      </defs>
      <use xlink:href="#ArialMT-4c"/>
      <use xlink:href="#ArialMT-50" x="55.615234"/>
      <use xlink:href="#ArialMT-4a" x="122.314453"/>
      <use xlink:href="#ArialMT-2d" x="172.314453"/>
      <use xlink:href="#ArialMT-47" x="205.615234"/>
      <use xlink:href="#ArialMT-55" x="283.398438"/>
      <use xlink:href="#ArialMT-45" x="355.615234"/>
      <use xlink:href="#ArialMT-53" x="422.314453"/>
      <use xlink:href="#ArialMT-53" x="489.013672"/>
      <use xlink:href="#ArialMT-2d" x="555.712891"/>
      <use xlink:href="#ArialMT-53" x="589.013672"/>
      <use xlink:href="#ArialMT-50" x="655.712891"/>
      <use xlink:href="#ArialMT-49" x="722.412109"/>
      <use xlink:href="#ArialMT-54" x="750.195312"/>
      <use xlink:href="#ArialMT-46" x="811.279297"/>
      <use xlink:href="#ArialMT-49" x="872.363281"/>
      <use xlink:href="#ArialMT-52" x="900.146484"/>
      <use xlink:href="#ArialMT-45" x="972.363281"/>
     </g>
    </g>
    <g id="line2d_25">
     <path d="M 730.045399 408.188281 
L 747.645399 408.188281 
L 765.245399 408.188281 
" style="fill: none; stroke: #da8bc3; stroke-width: 1.5; stroke-linecap: round"/>
    </g>
    <g id="text_24">
     <!-- ORCHIDEE-MICT-SPITFIRE -->
     <g style="fill: #262626" transform="translate(779.325399 414.348281) scale(0.176 -0.176)">
      <defs>
       <path id="ArialMT-4f" d="M 309 2231 
Q 309 3372 921 4017 
Q 1534 4663 2503 4663 
Q 3138 4663 3647 4359 
Q 4156 4056 4423 3514 
Q 4691 2972 4691 2284 
Q 4691 1588 4409 1038 
Q 4128 488 3612 205 
Q 3097 -78 2500 -78 
Q 1853 -78 1343 234 
Q 834 547 571 1087 
Q 309 1628 309 2231 
z
M 934 2222 
Q 934 1394 1379 917 
Q 1825 441 2497 441 
Q 3181 441 3623 922 
Q 4066 1403 4066 2288 
Q 4066 2847 3877 3264 
Q 3688 3681 3323 3911 
Q 2959 4141 2506 4141 
Q 1863 4141 1398 3698 
Q 934 3256 934 2222 
z
" transform="scale(0.015625)"/>
       <path id="ArialMT-48" d="M 513 0 
L 513 4581 
L 1119 4581 
L 1119 2700 
L 3500 2700 
L 3500 4581 
L 4106 4581 
L 4106 0 
L 3500 0 
L 3500 2159 
L 1119 2159 
L 1119 0 
L 513 0 
z
" transform="scale(0.015625)"/>
      </defs>
      <use xlink:href="#ArialMT-4f"/>
      <use xlink:href="#ArialMT-52" x="77.783203"/>
      <use xlink:href="#ArialMT-43" x="150"/>
      <use xlink:href="#ArialMT-48" x="222.216797"/>
      <use xlink:href="#ArialMT-49" x="294.433594"/>
      <use xlink:href="#ArialMT-44" x="322.216797"/>
      <use xlink:href="#ArialMT-45" x="394.433594"/>
      <use xlink:href="#ArialMT-45" x="461.132812"/>
      <use xlink:href="#ArialMT-2d" x="527.832031"/>
      <use xlink:href="#ArialMT-4d" x="561.132812"/>
      <use xlink:href="#ArialMT-49" x="644.433594"/>
      <use xlink:href="#ArialMT-43" x="672.216797"/>
      <use xlink:href="#ArialMT-54" x="744.433594"/>
      <use xlink:href="#ArialMT-2d" x="800.017578"/>
      <use xlink:href="#ArialMT-53" x="833.318359"/>
      <use xlink:href="#ArialMT-50" x="900.017578"/>
      <use xlink:href="#ArialMT-49" x="966.716797"/>
      <use xlink:href="#ArialMT-54" x="994.5"/>
      <use xlink:href="#ArialMT-46" x="1055.583984"/>
      <use xlink:href="#ArialMT-49" x="1116.667969"/>
      <use xlink:href="#ArialMT-52" x="1144.451172"/>
      <use xlink:href="#ArialMT-45" x="1216.667969"/>
     </g>
    </g>
    <g id="line2d_26">
     <path d="M 730.045399 433.084031 
L 747.645399 433.084031 
L 765.245399 433.084031 
" style="fill: none; stroke: #8c8c8c; stroke-width: 1.5; stroke-linecap: round"/>
    </g>
    <g id="text_25">
     <!-- SSiB4 -->
     <g style="fill: #262626" transform="translate(779.325399 439.244031) scale(0.176 -0.176)">
      <use xlink:href="#ArialMT-53"/>
      <use xlink:href="#ArialMT-53" x="66.699219"/>
      <use xlink:href="#ArialMT-69" x="133.398438"/>
      <use xlink:href="#ArialMT-42" x="155.615234"/>
      <use xlink:href="#ArialMT-34" x="222.314453"/>
     </g>
    </g>
    <g id="line2d_27">
     <path d="M 730.045399 457.979781 
L 747.645399 457.979781 
L 765.245399 457.979781 
" style="fill: none; stroke: #ccb974; stroke-width: 1.5; stroke-linecap: round"/>
    </g>
    <g id="text_26">
     <!-- VISIT -->
     <g style="fill: #262626" transform="translate(779.325399 464.139781) scale(0.176 -0.176)">
      <defs>
       <path id="ArialMT-56" d="M 1803 0 
L 28 4581 
L 684 4581 
L 1875 1253 
Q 2019 853 2116 503 
Q 2222 878 2363 1253 
L 3600 4581 
L 4219 4581 
L 2425 0 
L 1803 0 
z
" transform="scale(0.015625)"/>
      </defs>
      <use xlink:href="#ArialMT-56"/>
      <use xlink:href="#ArialMT-49" x="66.699219"/>
      <use xlink:href="#ArialMT-53" x="94.482422"/>
      <use xlink:href="#ArialMT-49" x="161.181641"/>
      <use xlink:href="#ArialMT-54" x="188.964844"/>
     </g>
    </g>
   </g>
  </g>
  <g id="axes_2">
   <g id="patch_5">
    <path d="M 667.92332 336.014531 
L 1175.196047 336.014531 
L 1175.196047 58.814531 
L 667.92332 58.814531 
z
" style="fill: #ffffff"/>
   </g>
   <g id="matplotlib.axis_3">
    <g id="xtick_9">
     <g id="text_27">
      <!-- 2004 -->
      <g style="fill: #262626" transform="translate(703.899204 355.750203) scale(0.143 -0.143)">
       <use xlink:href="#ArialMT-32"/>
       <use xlink:href="#ArialMT-30" x="55.615234"/>
       <use xlink:href="#ArialMT-30" x="111.230469"/>
       <use xlink:href="#ArialMT-34" x="166.845703"/>
      </g>
     </g>
    </g>
    <g id="xtick_10">
     <g id="text_28">
      <!-- 2006 -->
      <g style="fill: #262626" transform="translate(761.543832 355.750203) scale(0.143 -0.143)">
       <use xlink:href="#ArialMT-32"/>
       <use xlink:href="#ArialMT-30" x="55.615234"/>
       <use xlink:href="#ArialMT-30" x="111.230469"/>
       <use xlink:href="#ArialMT-36" x="166.845703"/>
      </g>
     </g>
    </g>
    <g id="xtick_11">
     <g id="text_29">
      <!-- 2008 -->
      <g style="fill: #262626" transform="translate(819.18846 355.750203) scale(0.143 -0.143)">
       <use xlink:href="#ArialMT-32"/>
       <use xlink:href="#ArialMT-30" x="55.615234"/>
       <use xlink:href="#ArialMT-30" x="111.230469"/>
       <use xlink:href="#ArialMT-38" x="166.845703"/>
      </g>
     </g>
    </g>
    <g id="xtick_12">
     <g id="text_30">
      <!-- 2010 -->
      <g style="fill: #262626" transform="translate(876.833088 355.750203) scale(0.143 -0.143)">
       <use xlink:href="#ArialMT-32"/>
       <use xlink:href="#ArialMT-30" x="55.615234"/>
       <use xlink:href="#ArialMT-31" x="111.230469"/>
       <use xlink:href="#ArialMT-30" x="166.845703"/>
      </g>
     </g>
    </g>
    <g id="xtick_13">
     <g id="text_31">
      <!-- 2012 -->
      <g style="fill: #262626" transform="translate(934.477716 355.750203) scale(0.143 -0.143)">
       <use xlink:href="#ArialMT-32"/>
       <use xlink:href="#ArialMT-30" x="55.615234"/>
       <use xlink:href="#ArialMT-31" x="111.230469"/>
       <use xlink:href="#ArialMT-32" x="166.845703"/>
      </g>
     </g>
    </g>
    <g id="xtick_14">
     <g id="text_32">
      <!-- 2014 -->
      <g style="fill: #262626" transform="translate(992.122344 355.750203) scale(0.143 -0.143)">
       <use xlink:href="#ArialMT-32"/>
       <use xlink:href="#ArialMT-30" x="55.615234"/>
       <use xlink:href="#ArialMT-31" x="111.230469"/>
       <use xlink:href="#ArialMT-34" x="166.845703"/>
      </g>
     </g>
    </g>
    <g id="xtick_15">
     <g id="text_33">
      <!-- 2016 -->
      <g style="fill: #262626" transform="translate(1049.766972 355.750203) scale(0.143 -0.143)">
       <use xlink:href="#ArialMT-32"/>
       <use xlink:href="#ArialMT-30" x="55.615234"/>
       <use xlink:href="#ArialMT-31" x="111.230469"/>
       <use xlink:href="#ArialMT-36" x="166.845703"/>
      </g>
     </g>
    </g>
    <g id="xtick_16">
     <g id="text_34">
      <!-- 2018 -->
      <g style="fill: #262626" transform="translate(1107.4116 355.750203) scale(0.143 -0.143)">
       <use xlink:href="#ArialMT-32"/>
       <use xlink:href="#ArialMT-30" x="55.615234"/>
       <use xlink:href="#ArialMT-31" x="111.230469"/>
       <use xlink:href="#ArialMT-38" x="166.845703"/>
      </g>
     </g>
    </g>
   </g>
   <g id="matplotlib.axis_4">
    <g id="ytick_7">
     <g id="text_35">
      <!-- −20 -->
      <g style="fill: #262626" transform="translate(634.166945 312.896418) scale(0.143 -0.143)">
       <defs>
        <path id="ArialMT-2212" d="M 3381 1997 
L 356 1997 
L 356 2522 
L 3381 2522 
L 3381 1997 
z
" transform="scale(0.015625)"/>
       </defs>
       <use xlink:href="#ArialMT-2212"/>
       <use xlink:href="#ArialMT-32" x="58.398438"/>
       <use xlink:href="#ArialMT-30" x="114.013672"/>
      </g>
     </g>
    </g>
    <g id="ytick_8">
     <g id="text_36">
      <!-- 0 -->
      <g style="fill: #262626" transform="translate(650.471179 241.589202) scale(0.143 -0.143)">
       <use xlink:href="#ArialMT-30"/>
      </g>
     </g>
    </g>
    <g id="ytick_9">
     <g id="text_37">
      <!-- 20 -->
      <g style="fill: #262626" transform="translate(642.519038 170.281986) scale(0.143 -0.143)">
       <use xlink:href="#ArialMT-32"/>
       <use xlink:href="#ArialMT-30" x="55.615234"/>
      </g>
     </g>
    </g>
    <g id="ytick_10">
     <g id="text_38">
      <!-- 40 -->
      <g style="fill: #262626" transform="translate(642.519038 98.97477) scale(0.143 -0.143)">
       <use xlink:href="#ArialMT-34"/>
       <use xlink:href="#ArialMT-30" x="55.615234"/>
      </g>
     </g>
    </g>
    <g id="text_39">
     <!-- Relative Anomaly (in %) -->
     <g style="fill: #262626" transform="translate(626.883632 280.211531) rotate(-90) scale(0.156 -0.156)">
      <defs>
       <path id="ArialMT-6c" d="M 409 0 
L 409 4581 
L 972 4581 
L 972 0 
L 409 0 
z
" transform="scale(0.015625)"/>
       <path id="ArialMT-74" d="M 1650 503 
L 1731 6 
Q 1494 -44 1306 -44 
Q 1000 -44 831 53 
Q 663 150 594 308 
Q 525 466 525 972 
L 525 2881 
L 113 2881 
L 113 3319 
L 525 3319 
L 525 4141 
L 1084 4478 
L 1084 3319 
L 1650 3319 
L 1650 2881 
L 1084 2881 
L 1084 941 
Q 1084 700 1114 631 
Q 1144 563 1211 522 
Q 1278 481 1403 481 
Q 1497 481 1650 503 
z
" transform="scale(0.015625)"/>
       <path id="ArialMT-76" d="M 1344 0 
L 81 3319 
L 675 3319 
L 1388 1331 
Q 1503 1009 1600 663 
Q 1675 925 1809 1294 
L 2547 3319 
L 3125 3319 
L 1869 0 
L 1344 0 
z
" transform="scale(0.015625)"/>
       <path id="ArialMT-6f" d="M 213 1659 
Q 213 2581 725 3025 
Q 1153 3394 1769 3394 
Q 2453 3394 2887 2945 
Q 3322 2497 3322 1706 
Q 3322 1066 3130 698 
Q 2938 331 2570 128 
Q 2203 -75 1769 -75 
Q 1072 -75 642 372 
Q 213 819 213 1659 
z
M 791 1659 
Q 791 1022 1069 705 
Q 1347 388 1769 388 
Q 2188 388 2466 706 
Q 2744 1025 2744 1678 
Q 2744 2294 2464 2611 
Q 2184 2928 1769 2928 
Q 1347 2928 1069 2612 
Q 791 2297 791 1659 
z
" transform="scale(0.015625)"/>
       <path id="ArialMT-6d" d="M 422 0 
L 422 3319 
L 925 3319 
L 925 2853 
Q 1081 3097 1340 3245 
Q 1600 3394 1931 3394 
Q 2300 3394 2536 3241 
Q 2772 3088 2869 2813 
Q 3263 3394 3894 3394 
Q 4388 3394 4653 3120 
Q 4919 2847 4919 2278 
L 4919 0 
L 4359 0 
L 4359 2091 
Q 4359 2428 4304 2576 
Q 4250 2725 4106 2815 
Q 3963 2906 3769 2906 
Q 3419 2906 3187 2673 
Q 2956 2441 2956 1928 
L 2956 0 
L 2394 0 
L 2394 2156 
Q 2394 2531 2256 2718 
Q 2119 2906 1806 2906 
Q 1569 2906 1367 2781 
Q 1166 2656 1075 2415 
Q 984 2175 984 1722 
L 984 0 
L 422 0 
z
" transform="scale(0.015625)"/>
       <path id="ArialMT-79" d="M 397 -1278 
L 334 -750 
Q 519 -800 656 -800 
Q 844 -800 956 -737 
Q 1069 -675 1141 -563 
Q 1194 -478 1313 -144 
Q 1328 -97 1363 -6 
L 103 3319 
L 709 3319 
L 1400 1397 
Q 1534 1031 1641 628 
Q 1738 1016 1872 1384 
L 2581 3319 
L 3144 3319 
L 1881 -56 
Q 1678 -603 1566 -809 
Q 1416 -1088 1222 -1217 
Q 1028 -1347 759 -1347 
Q 597 -1347 397 -1278 
z
" transform="scale(0.015625)"/>
       <path id="ArialMT-25" d="M 372 3481 
Q 372 3972 619 4315 
Q 866 4659 1334 4659 
Q 1766 4659 2048 4351 
Q 2331 4044 2331 3447 
Q 2331 2866 2045 2552 
Q 1759 2238 1341 2238 
Q 925 2238 648 2547 
Q 372 2856 372 3481 
z
M 1350 4272 
Q 1141 4272 1002 4090 
Q 863 3909 863 3425 
Q 863 2984 1003 2804 
Q 1144 2625 1350 2625 
Q 1563 2625 1702 2806 
Q 1841 2988 1841 3469 
Q 1841 3913 1700 4092 
Q 1559 4272 1350 4272 
z
M 1353 -169 
L 3859 4659 
L 4316 4659 
L 1819 -169 
L 1353 -169 
z
M 3334 1075 
Q 3334 1569 3581 1911 
Q 3828 2253 4300 2253 
Q 4731 2253 5014 1945 
Q 5297 1638 5297 1041 
Q 5297 459 5011 145 
Q 4725 -169 4303 -169 
Q 3888 -169 3611 142 
Q 3334 453 3334 1075 
z
M 4316 1866 
Q 4103 1866 3964 1684 
Q 3825 1503 3825 1019 
Q 3825 581 3965 400 
Q 4106 219 4313 219 
Q 4528 219 4667 400 
Q 4806 581 4806 1063 
Q 4806 1506 4665 1686 
Q 4525 1866 4316 1866 
z
" transform="scale(0.015625)"/>
      </defs>
      <use xlink:href="#ArialMT-52"/>
      <use xlink:href="#ArialMT-65" x="72.216797"/>
      <use xlink:href="#ArialMT-6c" x="127.832031"/>
      <use xlink:href="#ArialMT-61" x="150.048828"/>
      <use xlink:href="#ArialMT-74" x="205.664062"/>
      <use xlink:href="#ArialMT-69" x="233.447266"/>
      <use xlink:href="#ArialMT-76" x="255.664062"/>
      <use xlink:href="#ArialMT-65" x="305.664062"/>
      <use xlink:href="#ArialMT-20" x="361.279297"/>
      <use xlink:href="#ArialMT-41" x="383.5625"/>
      <use xlink:href="#ArialMT-6e" x="450.261719"/>
      <use xlink:href="#ArialMT-6f" x="505.876953"/>
      <use xlink:href="#ArialMT-6d" x="561.492188"/>
      <use xlink:href="#ArialMT-61" x="644.792969"/>
      <use xlink:href="#ArialMT-6c" x="700.408203"/>
      <use xlink:href="#ArialMT-79" x="722.625"/>
      <use xlink:href="#ArialMT-20" x="772.625"/>
      <use xlink:href="#ArialMT-28" x="800.408203"/>
      <use xlink:href="#ArialMT-69" x="833.708984"/>
      <use xlink:href="#ArialMT-6e" x="855.925781"/>
      <use xlink:href="#ArialMT-20" x="911.541016"/>
      <use xlink:href="#ArialMT-25" x="939.324219"/>
      <use xlink:href="#ArialMT-29" x="1028.240234"/>
     </g>
    </g>
   </g>
   <g id="PolyCollection_10"/>
   <g id="PolyCollection_11"/>
   <g id="PolyCollection_12"/>
   <g id="PolyCollection_13"/>
   <g id="PolyCollection_14"/>
   <g id="PolyCollection_15"/>
   <g id="PolyCollection_16"/>
   <g id="PolyCollection_17"/>
   <g id="PolyCollection_18"/>
   <g id="line2d_28">
    <path d="M 690.981171 219.895806 
L 719.803485 192.737253 
L 748.625799 199.657466 
L 777.448113 222.772429 
L 806.270427 195.51854 
L 835.092741 213.385808 
L 863.915055 252.867079 
L 892.737369 228.002027 
L 921.559683 202.407863 
L 950.381997 206.390046 
L 979.204311 285.375779 
L 1008.026625 257.950583 
L 1036.848939 254.144708 
L 1065.671253 272.70006 
L 1094.493568 252.180053 
L 1123.315882 272.520328 
L 1152.138196 291.5074 
" clip-path="url(#pba6709b6b3)" style="fill: none; stroke: #4c72b0; stroke-width: 1.5; stroke-linecap: round"/>
   </g>
   <g id="line2d_29">
    <path d="M 690.981171 213.234137 
L 719.803485 195.669629 
L 748.625799 208.564714 
L 777.448113 234.900759 
L 806.270427 209.193106 
L 835.092741 210.799669 
L 863.915055 239.258002 
L 892.737369 240.247272 
L 921.559683 221.855347 
L 950.381997 225.330704 
L 979.204311 268.16473 
L 1008.026625 255.836263 
L 1036.848939 246.410149 
L 1065.671253 249.198342 
L 1094.493568 251.429273 
L 1123.315882 274.115118 
L 1152.138196 275.806014 
" clip-path="url(#pba6709b6b3)" style="fill: none; stroke: #dd8452; stroke-width: 1.5; stroke-linecap: round"/>
   </g>
   <g id="line2d_30">
    <path d="M 690.981171 226.338933 
L 719.803485 237.825634 
L 748.625799 208.460431 
L 777.448113 239.73163 
L 806.270427 208.97353 
L 835.092741 206.338696 
L 863.915055 238.754365 
L 892.737369 234.154876 
L 921.559683 233.625644 
L 950.381997 210.192777 
L 979.204311 249.882066 
L 1008.026625 265.014964 
L 1036.848939 239.762916 
L 1065.671253 258.537797 
L 1094.493568 262.557172 
L 1123.315882 250.358256 
L 1152.138196 249.503539 
" clip-path="url(#pba6709b6b3)" style="fill: none; stroke-dasharray: 1,1.65; stroke-dashoffset: 0; stroke: #55a868"/>
   </g>
   <g id="line2d_31">
    <path d="M 690.981171 249.142267 
L 719.803485 235.916865 
L 748.625799 226.924558 
L 777.448113 237.871915 
L 806.270427 217.439637 
L 835.092741 230.652575 
L 863.915055 243.754366 
L 892.737369 228.764073 
L 921.559683 236.870537 
L 950.381997 229.638773 
L 979.204311 251.390737 
L 1008.026625 239.429434 
L 1036.848939 226.993665 
L 1065.671253 240.055429 
L 1094.493568 235.647808 
L 1123.315882 248.861125 
L 1152.138196 240.659464 
" clip-path="url(#pba6709b6b3)" style="fill: none; stroke-dasharray: 1,1.65; stroke-dashoffset: 0; stroke: #c44e52"/>
   </g>
   <g id="line2d_32">
    <path d="M 690.981171 217.606282 
L 719.803485 229.701909 
L 748.625799 237.809164 
L 777.448113 227.976101 
L 806.270427 233.315452 
L 835.092741 219.793871 
L 863.915055 227.46405 
L 892.737369 244.201288 
L 921.559683 240.664802 
L 950.381997 236.802822 
L 979.204311 226.549196 
L 1008.026625 246.705732 
L 1036.848939 247.916576 
L 1065.671253 235.743301 
L 1094.493568 248.804038 
L 1123.315882 245.627031 
L 1152.138196 253.331613 
" clip-path="url(#pba6709b6b3)" style="fill: none; stroke-dasharray: 1,1.65; stroke-dashoffset: 0; stroke: #8172b3"/>
   </g>
   <g id="line2d_33">
    <path d="M 690.981171 264.99537 
L 719.803485 220.399436 
L 748.625799 210.39059 
L 777.448113 220.85866 
L 806.270427 198.448407 
L 835.092741 240.653197 
L 863.915055 287.650827 
L 892.737369 231.466562 
L 921.559683 281.376698 
L 950.381997 268.957174 
L 979.204311 290.63287 
L 1008.026625 248.088058 
L 1036.848939 217.785172 
L 1065.671253 195.418405 
L 1094.493568 229.480102 
L 1123.315882 208.644772 
L 1152.138196 204.766929 
" clip-path="url(#pba6709b6b3)" style="fill: none; stroke-dasharray: 1,1.65; stroke-dashoffset: 0; stroke: #937860"/>
   </g>
   <g id="line2d_34">
    <path d="M 690.981171 252.269322 
L 719.803485 245.171711 
L 748.625799 251.976254 
L 777.448113 256.88878 
L 806.270427 245.05485 
L 835.092741 242.713185 
L 863.915055 257.056443 
L 892.737369 231.46906 
L 921.559683 234.842789 
L 950.381997 217.386889 
L 979.204311 233.866143 
L 1008.026625 215.82277 
L 1036.848939 227.988667 
L 1065.671253 246.844782 
L 1094.493568 231.567575 
L 1123.315882 199.735443 
L 1152.138196 229.358564 
" clip-path="url(#pba6709b6b3)" style="fill: none; stroke-dasharray: 1,1.65; stroke-dashoffset: 0; stroke: #da8bc3"/>
   </g>
   <g id="line2d_35">
    <path d="M 690.981171 242.286177 
L 719.803485 235.078371 
L 748.625799 218.290078 
L 777.448113 239.473936 
L 806.270427 215.212628 
L 835.092741 219.072311 
L 863.915055 245.727045 
L 892.737369 244.345585 
L 921.559683 227.065075 
L 950.381997 216.639956 
L 979.204311 238.719888 
L 1008.026625 250.813489 
L 1036.848939 235.836488 
L 1065.671253 236.210797 
L 1094.493568 241.173563 
L 1123.315882 260.828161 
L 1152.138196 253.23968 
" clip-path="url(#pba6709b6b3)" style="fill: none; stroke-dasharray: 1,1.65; stroke-dashoffset: 0; stroke: #8c8c8c"/>
   </g>
   <g id="line2d_36">
    <path d="M 690.981171 204.530228 
L 719.803485 320.380876 
L 748.625799 198.779016 
L 777.448113 302.230307 
L 806.270427 239.813119 
L 835.092741 200.941317 
L 863.915055 225.770336 
L 892.737369 323.414531 
L 921.559683 304.00214 
L 950.381997 227.503151 
L 979.204311 182.301883 
L 1008.026625 259.580927 
L 1036.848939 194.700437 
L 1065.671253 245.027194 
L 1094.493568 286.181261 
L 1123.315882 233.441972 
L 1152.138196 71.414531 
" clip-path="url(#pba6709b6b3)" style="fill: none; stroke-dasharray: 1,1.65; stroke-dashoffset: 0; stroke: #ccb974"/>
   </g>
   <g id="patch_6">
    <path d="M 667.92332 336.014531 
L 667.92332 58.814531 
" style="fill: none; stroke: #262626; stroke-width: 1.25; stroke-linejoin: miter; stroke-linecap: square"/>
   </g>
   <g id="patch_7">
    <path d="M 667.92332 336.014531 
L 1175.196047 336.014531 
" style="fill: none; stroke: #262626; stroke-width: 1.25; stroke-linejoin: miter; stroke-linecap: square"/>
   </g>
   <g id="text_40">
    <!-- Relative Anomaly -->
    <g style="fill: #262626" transform="translate(824.985464 25.094531) scale(0.25 -0.25)">
     <use xlink:href="#ArialMT-52"/>
     <use xlink:href="#ArialMT-65" x="72.216797"/>
     <use xlink:href="#ArialMT-6c" x="127.832031"/>
     <use xlink:href="#ArialMT-61" x="150.048828"/>
     <use xlink:href="#ArialMT-74" x="205.664062"/>
     <use xlink:href="#ArialMT-69" x="233.447266"/>
     <use xlink:href="#ArialMT-76" x="255.664062"/>
     <use xlink:href="#ArialMT-65" x="305.664062"/>
     <use xlink:href="#ArialMT-20" x="361.279297"/>
     <use xlink:href="#ArialMT-41" x="383.5625"/>
     <use xlink:href="#ArialMT-6e" x="450.261719"/>
     <use xlink:href="#ArialMT-6f" x="505.876953"/>
     <use xlink:href="#ArialMT-6d" x="561.492188"/>
     <use xlink:href="#ArialMT-61" x="644.792969"/>
     <use xlink:href="#ArialMT-6c" x="700.408203"/>
     <use xlink:href="#ArialMT-79" x="722.625"/>
    </g>
   </g>
  </g>
 </g>
 <defs>
  <clipPath id="p8438b1a0a0">
   <rect x="59.196047" y="58.814531" width="507.272727" height="277.2"/>
  </clipPath>
  <clipPath id="pba6709b6b3">
   <rect x="667.92332" y="58.814531" width="507.272727" height="277.2"/>
  </clipPath>
 </defs>
</svg>
